<svg width="45" height="24" viewBox="0 0 45 24">
  <path fill="#231F20" fill-rule="evenodd" stroke="#151714" stroke-width=".5" d="M27.2225784,2.51845632 C27.6666201,1.77505356 28.3806062,1.77811113 28.8207737,2.51948851 L28.8207737,2.51948851 L35.3303119,13.483552 C35.7579435,14.2038151 35.5502719,15.1736896 34.8657437,15.6486136 L34.8657437,15.6486136 L34.8062552,15.6898866 C34.130157,16.1589618 33.2217378,15.9720738 32.796073,15.2593972 L32.796073,15.2593972 L28.8297837,8.61876785 C28.3874735,7.87822217 27.6636966,7.87209666 27.2195112,8.61568161 L27.2195112,8.61568161 L24.8536998,12.5761488 C24.4091376,13.3203645 23.6883541,14.5271342 23.2429433,15.2729532 L23.2429433,15.2729532 L22.9799012,15.7134044 C22.5351285,16.4581548 21.8147033,16.4632862 21.3722119,15.7224789 L21.3722119,15.7224789 L17.1242486,8.61065226 C16.6802069,7.8672495 15.9628421,7.87235644 15.5185068,8.61626184 L15.5185068,8.61626184 L6.76463795,23.2719758 C6.31681398,24.0217221 5.3611516,24.257774 4.622314,23.8122585 L4.622314,23.8122585 L4.49635991,23.7279092 C3.85325557,23.2512087 3.67146687,22.3577899 4.09030817,21.6565854 L4.09030817,21.6565854 L15.517269,2.52610183 C15.9607141,1.78370688 16.6817572,1.777649 17.1242486,2.51845632 L17.1242486,2.51845632 L21.3722119,9.63028295 C21.8162536,10.3736857 22.5321236,10.3710903 22.9746151,9.63028295 L22.9746151,9.63028295 Z M39.7260242,16.5256529 C41.9912861,16.5256529 43.106756,18.0935608 43.921127,19.2391287 C44.6464807,20.260525 44.9655395,20.5996312 45.4779095,20.6359918 L45.5763907,20.6387435 C46.4381768,20.6387435 47.1367925,21.3405057 47.1367925,22.2061732 C47.1367925,23.0237482 46.5136445,23.6951236 45.718419,23.7671974 L45.5763907,23.773603 C43.3111288,23.773603 42.1956589,22.2056951 41.3812879,21.0601272 C40.6105996,19.9748936 40.29858,19.6599016 39.7260242,19.6599016 C39.1534683,19.6599016 38.8414488,19.9748936 38.0707605,21.0601272 C37.2563895,22.2056951 36.1409196,23.773603 33.8756577,23.773603 C31.6103958,23.773603 30.4949259,22.2056951 29.6805549,21.0601272 C28.9098666,19.9748936 28.5978471,19.6599016 28.0252912,19.6599016 C27.4527353,19.6599016 27.1407158,19.9748936 26.3700275,21.0601272 C25.5556565,22.2056951 24.4401866,23.773603 22.1749247,23.773603 C19.9096628,23.773603 18.7941929,22.2056951 17.9798219,21.0601272 C17.2091336,19.9748936 16.8971141,19.6599016 16.3245582,19.6599016 L16.1825298,19.6541068 C15.3873044,19.582033 14.7641564,18.9106576 14.7641564,18.0930826 C14.7641564,17.2755077 15.3873044,16.6041323 16.1825298,16.5320584 L16.3245582,16.5256529 C18.5898201,16.5256529 19.70529,18.0935608 20.519661,19.2391287 C21.2903493,20.3243623 21.6023688,20.6393543 22.1749247,20.6393543 C22.7474806,20.6393543 23.0595001,20.3243623 23.8301884,19.2391287 C24.6445594,18.0935608 25.7600293,16.5256529 28.0252912,16.5256529 C30.2905531,16.5256529 31.406023,18.0935608 32.220394,19.2391287 C32.9910823,20.3243623 33.3031018,20.6393543 33.8756577,20.6393543 C34.4482136,20.6393543 34.7602331,20.3243623 35.5309214,19.2391287 C36.3452924,18.0935608 37.4607623,16.5256529 39.7260242,16.5256529 Z" transform="translate(-3 -1)"/>
</svg>
