<?xml version="1.0" standalone="no"?>
<!DOCTYPE svg PUBLIC "-//W3C//DTD SVG 20010904//EN"
 "http://www.w3.org/TR/2001/REC-SVG-20010904/DTD/svg10.dtd">
<svg version="1.0" xmlns="http://www.w3.org/2000/svg"
 width="1024.000000pt" height="1024.000000pt" viewBox="0 0 1024.000000 1024.000000"
 preserveAspectRatio="xMidYMid meet">
<metadata>
Created by potrace 1.11, written by Peter Selinger 2001-2013
</metadata>
<g transform="translate(0.000000,1024.000000) scale(0.100000,-0.100000)"
fill="#000000" stroke="none">
<path d="M3502 7203 c-18 -9 -48 -35 -66 -57 -30 -38 -146 -222 -146 -233 0
-2 -13 -24 -30 -48 -16 -24 -30 -45 -30 -47 0 -3 -38 -67 -84 -144 -46 -76
-164 -272 -261 -434 -97 -162 -264 -441 -371 -618 -107 -178 -194 -328 -194
-333 0 -5 -4 -9 -10 -9 -5 0 -10 -4 -10 -9 0 -5 -22 -46 -50 -90 -27 -44 -50
-85 -50 -91 0 -5 -4 -10 -10 -10 -5 0 -10 -5 -10 -10 0 -6 -8 -23 -19 -38 -37
-53 -441 -734 -441 -743 0 -5 -4 -9 -9 -9 -5 0 -11 -8 -15 -17 -3 -10 -10 -25
-16 -33 -19 -29 -130 -211 -130 -215 0 -1 -38 -65 -85 -141 -47 -77 -91 -150
-97 -164 -7 -14 -23 -39 -35 -56 -13 -17 -23 -33 -23 -36 0 -2 -29 -53 -64
-112 -70 -115 -90 -179 -82 -258 6 -57 43 -131 86 -175 120 -122 335 -114 438
16 20 26 210 336 422 689 212 353 467 778 567 944 100 167 197 328 215 358 17
30 39 67 48 81 8 14 47 79 85 143 39 64 97 161 130 216 33 55 105 175 160 268
55 92 115 184 133 204 64 71 154 75 221 10 21 -21 113 -163 205 -317 92 -154
173 -289 179 -299 7 -11 27 -44 45 -72 17 -29 32 -55 32 -58 0 -3 12 -24 28
-48 15 -24 32 -52 39 -63 6 -11 63 -105 125 -208 133 -220 147 -245 162 -272
87 -156 156 -209 242 -186 58 16 96 58 185 209 44 75 91 153 104 172 12 19
161 267 330 550 169 283 323 536 342 561 48 68 128 96 184 67 58 -31 92 -69
141 -158 14 -25 55 -94 92 -154 36 -60 66 -112 66 -117 0 -5 5 -9 10 -9 6 0
10 -4 10 -9 0 -5 57 -104 128 -220 70 -116 135 -226 145 -244 10 -17 26 -45
37 -62 11 -16 29 -46 40 -65 153 -261 223 -371 253 -396 115 -97 273 -87 384
25 67 67 88 121 88 221 0 102 16 69 -239 495 -105 176 -193 325 -196 330 -3 6
-32 55 -65 110 -33 55 -64 108 -70 117 -5 9 -37 62 -70 118 -33 56 -65 109
-70 118 -6 9 -96 161 -201 337 -106 176 -200 335 -210 352 -92 159 -183 303
-211 334 -92 102 -198 70 -292 -89 -29 -48 -162 -269 -296 -492 -134 -223
-288 -479 -341 -570 -54 -91 -102 -166 -106 -168 -4 -2 -8 -8 -8 -14 0 -6 -20
-41 -45 -78 -66 -100 -147 -132 -224 -90 -41 21 -95 106 -481 751 -223 371
-418 694 -435 719 -33 48 -101 90 -145 90 -14 0 -40 -8 -58 -17z"/>
<path d="M3491 4413 c-137 -35 -224 -147 -224 -288 -1 -163 114 -285 284 -301
35 -3 78 -12 96 -19 54 -23 120 -93 227 -239 234 -323 384 -447 613 -507 82
-22 256 -29 343 -15 101 16 228 67 320 129 52 34 219 202 268 267 18 25 69 95
113 155 131 179 189 225 287 225 99 0 163 -50 292 -228 204 -281 315 -392 475
-475 188 -98 458 -108 663 -26 163 65 308 190 459 395 12 16 36 49 55 74 18
25 41 57 50 71 33 52 132 151 169 170 49 24 131 25 184 0 64 -29 89 -58 292
-331 163 -219 298 -329 486 -396 97 -35 262 -49 337 -29 218 58 295 333 138
497 -56 58 -112 83 -212 93 -118 11 -156 44 -343 295 -136 182 -228 281 -326
350 -94 67 -224 119 -337 136 -68 9 -219 7 -275 -5 -27 -6 -60 -12 -72 -15
-47 -10 -165 -66 -230 -109 -87 -59 -184 -153 -258 -252 -17 -22 -35 -46 -42
-55 -6 -8 -46 -62 -89 -120 -42 -57 -99 -126 -125 -151 -99 -96 -217 -98 -317
-6 -25 23 -102 119 -172 212 -70 94 -150 195 -179 227 -95 104 -247 206 -366
244 -10 4 -85 20 -140 30 -87 17 -276 1 -375 -32 -190 -64 -325 -180 -529
-454 -147 -197 -201 -254 -259 -277 -56 -21 -87 -23 -140 -7 -62 18 -103 53
-183 157 -38 51 -76 99 -82 107 -7 9 -28 38 -47 65 -79 113 -213 251 -302 311
-159 106 -390 162 -527 127z"/>
</g>
</svg>
