<?xml version="1.0" encoding="UTF-8"?>
<svg width="102px" height="52px" viewBox="0 0 102 52" version="1.1" xmlns="http://www.w3.org/2000/svg" xmlns:xlink="http://www.w3.org/1999/xlink">
    <!-- Generator: Sketch 47.1 (45422) - http://www.bohemiancoding.com/sketch -->
    <title>logo-large</title>
    <desc>Created with Sketch.</desc>
    <defs></defs>
    <g id="front-page" stroke="none" stroke-width="1" fill="none" fill-rule="evenodd">
        <g transform="translate(-27.000000, -26.000000)" id="Hero" fill="#DD452A">
            <g>
                <g id="logo-large" transform="translate(27.000000, 26.000000)">
                    <g id="logo-small">
                        <path d="M101.692068,50.1016011 C96.2189516,50.1016011 93.5238564,46.6235786 91.5562485,44.0824147 C89.6941827,41.6750877 88.94031,40.9763546 87.5569534,40.9763546 C86.1735969,40.9763546 85.4197241,41.6750877 83.5576583,44.0824147 C81.5900504,46.6235786 78.8949552,50.1016011 73.4218388,50.1016011 C67.9487225,50.1016011 65.2536273,46.6235786 63.2860193,44.0824147 C61.4239536,41.6750877 60.6700808,40.9763546 59.2867242,40.9763546 C57.9033677,40.9763546 57.1494949,41.6750877 55.2874292,44.0824147 C53.3198212,46.6235786 50.624726,50.1016011 45.1516097,50.1016011 C39.6784933,50.1016011 36.9833981,46.6235786 35.0157902,44.0824147 C33.1537244,41.6750877 32.3998516,40.9763546 31.0164951,40.9763546 L31.0164951,34.0237858 C36.4896114,34.0237858 39.1847066,37.5018083 41.1523146,40.0429722 C43.0143803,42.4502992 43.7682531,43.1490323 45.1516097,43.1490323 C46.5349662,43.1490323 47.288839,42.4502992 49.1509047,40.0429722 C51.1185127,37.5018083 53.8136079,34.0237858 59.2867242,34.0237858 C64.7598406,34.0237858 67.4549358,37.5018083 69.4225437,40.0429722 C71.2846095,42.4502992 72.0384823,43.1490323 73.4218388,43.1490323 C74.8051954,43.1490323 75.5590681,42.4502992 77.4211339,40.0429722 C79.3887419,37.5018083 82.083837,34.0237858 87.5569534,34.0237858 C93.0300698,34.0237858 95.725165,37.5018083 97.6927729,40.0429722 C99.5548387,42.4502992 100.308711,43.1490323 101.692068,43.1490323 L101.692068,50.1016011 Z" id="Fill-1"></path>
                        <path d="M45.6375733,35.240833 L50.1702334,28.2726209 L59.7726879,13.5140556 L73.1652378,34.1006117 C74.3111244,32.6457867 76.0978029,30.58435 78.5554281,28.8688037 L59.7726879,0 L45.6375733,21.7267774 L31.5024587,0 L0,48.4211652 L6.46445907,52 L31.5024587,13.5140556 L45.6375733,35.240833 Z" id="Fill-3"></path>
                    </g>
                </g>
            </g>
        </g>
    </g>
</svg>