<?xml version="1.0" encoding="UTF-8"?>
<svg width="55px" height="31px" viewBox="0 0 55 31" version="1.1" xmlns="http://www.w3.org/2000/svg" xmlns:xlink="http://www.w3.org/1999/xlink">
    <!-- Generator: Sketch 43.2 (39069) - http://www.bohemiancoding.com/sketch -->
    <title>logo-small</title>
    <desc>Created with Sketch.</desc>
    <defs></defs>
    <g id="logo" stroke="none" stroke-width="1" fill="none" fill-rule="evenodd">
        <g id="logo-sizes" transform="translate(-1047.000000, -192.000000)" fill="#231F20">
            <g id="logo-small" transform="translate(1047.000000, 192.000000)">
                <g>
                    <path d="M54.5,29.6873 C51.596,29.6873 50.166,27.6863 49.122,26.2243 C48.134,24.8393 47.734,24.4373 47,24.4373 C46.266,24.4373 45.866,24.8393 44.878,26.2243 C43.834,27.6863 42.404,29.6873 39.5,29.6873 C36.596,29.6873 35.166,27.6863 34.122,26.2243 C33.134,24.8393 32.734,24.4373 32,24.4373 C31.266,24.4373 30.866,24.8393 29.878,26.2243 C28.834,27.6863 27.404,29.6873 24.5,29.6873 C21.596,29.6873 20.166,27.6863 19.122,26.2243 C18.134,24.8393 17.734,24.4373 17,24.4373 L17,20.4373 C19.904,20.4373 21.334,22.4383 22.378,23.9003 C23.366,25.2853 23.766,25.6873 24.5,25.6873 C25.234,25.6873 25.634,25.2853 26.622,23.9003 C27.666,22.4383 29.096,20.4373 32,20.4373 C34.904,20.4373 36.334,22.4383 37.378,23.9003 C38.366,25.2853 38.766,25.6873 39.5,25.6873 C40.234,25.6873 40.634,25.2853 41.622,23.9003 C42.666,22.4383 44.096,20.4373 47,20.4373 C49.904,20.4373 51.334,22.4383 52.378,23.9003 C53.366,25.2853 53.766,25.6873 54.5,25.6873 L54.5,29.6873 Z" id="Fill-1"></path>
                    <path d="M24.5,21.1375 L26.905,17.1285 L32,8.6375 L39.106,20.4815 C39.714,19.6445 40.662,18.4585 41.966,17.4715 L32,0.8625 L24.5,13.3625 L17,0.8625 L0.285,28.7205 L3.715,30.7795 L17,8.6375 L24.5,21.1375 Z" id="Fill-3"></path>
                </g>
            </g>
        </g>
    </g>
</svg>