<?xml version="1.0" encoding="UTF-8"?>
<svg width="50px" height="50px" viewBox="0 0 50 50" version="1.1" xmlns="http://www.w3.org/2000/svg" xmlns:xlink="http://www.w3.org/1999/xlink">
    <!-- Generator: Sketch 57.1 (83088) - https://sketch.com -->
    <title>Artboard</title>
    <desc>Created with Sketch.</desc>
    <g id="Artboard" stroke="none" stroke-width="1" fill="none" fill-rule="evenodd">
        <path d="M41,24 C38.52192,24 37.3016533,22.2694054 36.4107733,21.004973 C35.56768,19.8071351 35.2263467,19.4594595 34.6,19.4594595 C33.9736533,19.4594595 33.63232,19.8071351 32.7892267,21.004973 C31.8983467,22.2694054 30.67808,24 28.2,24 C25.72192,24 24.5016533,22.2694054 23.6107733,21.004973 C22.76768,19.8071351 22.4263467,19.4594595 21.8,19.4594595 C21.1736533,19.4594595 20.83232,19.8071351 19.9892267,21.004973 C19.0983467,22.2694054 17.87808,24 15.4,24 C12.92192,24 11.7016533,22.2694054 10.8107733,21.004973 C9.96768,19.8071351 9.62634667,18.995027 9,18.995027 L9,16 C11.47808,16 12.6983467,17.7305946 13.5892267,18.995027 C14.43232,20.1928649 14.7736533,20.5405405 15.4,20.5405405 C16.0263467,20.5405405 16.36768,20.1928649 17.2107733,18.995027 C18.1016533,17.7305946 19.32192,16 21.8,16 C24.27808,16 25.4983467,17.7305946 26.3892267,18.995027 C27.23232,20.1928649 27.5736533,20.5405405 28.2,20.5405405 C28.8263467,20.5405405 29.16768,20.1928649 30.0107733,18.995027 C30.9016533,17.7305946 32.12192,16 34.6,16 C37.07808,16 38.2983467,17.7305946 39.1892267,18.995027 C40.03232,20.1928649 40.3736533,20.5405405 41,20.5405405 L41,24 Z" id="Fill-1" fill="#231F20"></path>
        <path d="M41,35 C38.52192,35 37.3016533,33.2694054 36.4107733,32.004973 C35.56768,30.8071351 35.2263467,30.4594595 34.6,30.4594595 C33.9736533,30.4594595 33.63232,30.8071351 32.7892267,32.004973 C31.8983467,33.2694054 30.67808,35 28.2,35 C25.72192,35 24.5016533,33.2694054 23.6107733,32.004973 C22.76768,30.8071351 22.4263467,30.4594595 21.8,30.4594595 C21.1736533,30.4594595 20.83232,30.8071351 19.9892267,32.004973 C19.0983467,33.2694054 17.87808,35 15.4,35 C12.92192,35 11.7016533,33.2694054 10.8107733,32.004973 C9.96768,30.8071351 9.62634667,29.995027 9,29.995027 L9,27 C11.47808,27 12.6983467,28.7305946 13.5892267,29.995027 C14.43232,31.1928649 14.7736533,31.5405405 15.4,31.5405405 C16.0263467,31.5405405 16.36768,31.1928649 17.2107733,29.995027 C18.1016533,28.7305946 19.32192,27 21.8,27 C24.27808,27 25.4983467,28.7305946 26.3892267,29.995027 C27.23232,31.1928649 27.5736533,31.5405405 28.2,31.5405405 C28.8263467,31.5405405 29.16768,31.1928649 30.0107733,29.995027 C30.9016533,28.7305946 32.12192,27 34.6,27 C37.07808,27 38.2983467,28.7305946 39.1892267,29.995027 C40.03232,31.1928649 40.3736533,31.5405405 41,31.5405405 L41,35 Z" id="Fill-1-Copy" fill="#231F20"></path>
    </g>
</svg>