<?xml version="1.0" encoding="UTF-8" standalone="no"?>
<!DOCTYPE svg PUBLIC "-//W3C//DTD SVG 1.1//EN" "http://www.w3.org/Graphics/SVG/1.1/DTD/svg11.dtd">
<svg width="100%" height="100%" viewBox="0 0 229 129" version="1.1" xmlns="http://www.w3.org/2000/svg" xmlns:xlink="http://www.w3.org/1999/xlink" xml:space="preserve" xmlns:serif="http://www.serif.com/" style="fill-rule:evenodd;clip-rule:evenodd;stroke-linejoin:round;stroke-miterlimit:2;">
    <g transform="matrix(1,0,0,1,-354.094,-4748.62)">
        <g id="Page-4" serif:id="Page 4" transform="matrix(3.66213,0,0,2.05574,354.094,4748.62)">
            <rect x="0" y="0" width="62.5" height="62.5" style="fill:none;"/>
            <g id="Logo" transform="matrix(1.13777,0,0,2.02685,-4.28309,-28.9517)">
                <g transform="matrix(1,0,0,1,58.5,34.4373)">
                    <path d="M0,6.778C0,7.743 -0.588,8.61 -1.483,8.968C-2.379,9.325 -3.403,9.101 -4.067,8.401C-4.585,7.857 -5.006,7.268 -5.378,6.747C-6.366,5.362 -6.766,4.96 -7.5,4.96C-8.234,4.96 -8.634,5.362 -9.622,6.747C-10.666,8.209 -12.096,10.21 -15,10.21C-17.904,10.21 -19.334,8.209 -20.378,6.747C-21.366,5.362 -21.766,4.96 -22.5,4.96C-23.234,4.96 -23.634,5.362 -24.622,6.747C-25.666,8.209 -27.096,10.21 -30,10.21C-32.904,10.21 -34.334,8.209 -35.378,6.747C-35.935,5.966 -36.305,5.498 -36.654,5.238C-37.177,4.869 -37.488,4.269 -37.488,3.63C-37.5,3.433 -37.5,3.225 -37.5,3.01C-37.5,2.15 -36.995,1.369 -36.21,1.017C-35.424,0.665 -34.506,0.807 -33.863,1.379C-33.143,2.034 -32.593,2.803 -32.122,3.463C-31.134,4.848 -30.734,5.25 -30,5.25C-29.266,5.25 -28.866,4.848 -27.878,3.463C-26.834,2.001 -25.404,0 -22.5,0C-19.596,0 -18.166,2.001 -17.122,3.463C-16.134,4.848 -15.734,5.25 -15,5.25C-14.266,5.25 -13.866,4.848 -12.878,3.463C-11.834,2.001 -10.404,0 -7.5,0C-4.596,0 -3.166,2.001 -2.122,3.463C-1.607,4.185 -1.251,4.64 -0.925,4.91C-0.352,5.36 -0.017,6.049 -0.017,6.778C0,6.778 0,6.778 0,6.778Z" style="fill:rgb(35,31,32);fill-rule:nonzero;"/>
                </g>
                <g transform="matrix(1,0,0,1,28.5,24.5045)">
                    <path d="M-1.798,7.636C-1.419,8.268 -0.737,8.654 0,8.654C0.737,8.654 1.419,8.267 1.798,7.636C2.146,7.056 2.405,6.624 2.405,6.624C2.405,6.624 4.909,2.45 6.407,-0.045C6.637,-0.429 7.052,-0.664 7.5,-0.664C7.948,-0.664 8.363,-0.429 8.593,-0.045C9.913,2.154 12.12,5.834 13.462,8.07C13.712,8.487 14.149,8.758 14.634,8.799C15.119,8.839 15.594,8.642 15.91,8.272C16.223,7.872 16.569,7.464 16.922,7.086C17.591,6.435 17.725,5.41 17.245,4.61C15.496,1.664 11.387,-5.204 9.18,-8.892C8.872,-9.407 8.316,-9.722 7.716,-9.723C7.116,-9.724 6.559,-9.41 6.249,-8.896C4.817,-6.516 2.668,-2.946 1.357,-0.769C1.111,-0.36 0.671,-0.106 0.193,-0.099C-0.285,-0.091 -0.733,-0.331 -0.992,-0.733C-2.34,-2.823 -4.535,-6.225 -6.045,-8.567C-6.402,-9.12 -7.019,-9.45 -7.678,-9.439C-8.336,-9.429 -8.943,-9.079 -9.282,-8.515C-12.798,-2.66 -21.198,11.326 -24.061,16.094C-24.6,16.991 -24.31,18.156 -23.413,18.695C-23.12,18.872 -22.813,19.056 -22.516,19.234C-22.057,19.51 -21.507,19.592 -20.988,19.463C-20.468,19.333 -20.021,19.002 -19.746,18.543C-17.291,14.451 -11.149,4.215 -8.618,-0.004C-8.382,-0.397 -7.958,-0.637 -7.5,-0.637C-7.042,-0.637 -6.618,-0.397 -6.382,-0.004C-5.172,2.013 -3.224,5.259 -1.798,7.636Z" style="fill:rgb(35,31,32);fill-rule:nonzero;"/>
                </g>
            </g>
        </g>
    </g>
</svg>
