<svg width="1000" height="1000" viewBox="0 0 1000 1000">
  <g fill="none" fill-rule="evenodd">
    <path fill="#E64C4C" d="M281.38852,25 L718.61148,25 C807.763354,25 840.091978,34.2825611 872.68457,51.7132704 C905.277163,69.1439796 930.85602,94.7228371 948.28673,127.31543 C965.717439,159.908022 975,192.236646 975,281.38852 L975,718.61148 C975,807.763354 965.717439,840.091978 948.28673,872.68457 C930.85602,905.277163 905.277163,930.85602 872.68457,948.28673 C840.091978,965.717439 807.763354,975 718.61148,975 L281.38852,975 C192.236646,975 159.908022,965.717439 127.31543,948.28673 C94.7228371,930.85602 69.1439796,905.277163 51.7132704,872.68457 C34.2825611,840.091978 25,807.763354 25,718.61148 L25,281.38852 C25,192.236646 34.2825611,159.908022 51.7132704,127.31543 C69.1439796,94.7228371 94.7228371,69.1439796 127.31543,51.7132704 C159.908022,34.2825611 192.236646,25 281.38852,25 Z"/>
    <circle cx="500" cy="500" r="319" fill="#F8C333"/>
    <path fill="#027AFF" d="M819,500 C819,323.821165 676.178835,181 500,181 C323.821165,181 181,323.821165 181,500 C181,500.79977 339.077832,500.79977 500,500 C658.052004,499.214494 819,500.79977 819,500 Z"/>
  </g>
</svg>
