<svg width="1000" height="1000" viewBox="0 0 1000 1000">
  <defs>
    <path id="collab-a" d="M500,3.41060513e-13 C676.178835,3.41060513e-13 819,142.821165 819,319 C819,342.723652 816.410307,365.84245 811.498194,388.089121 L811.145,389.668 L814.469743,391.179397 C923.989989,441.699991 1000,552.473451 1000,681 C1000,857.178835 857.178835,1000 681,1000 C613.783925,1000 551.423357,979.211106 499.997231,943.712252 C448.577454,979.210835 386.216512,1000 319,1000 C142.821165,1000 0,857.178835 0,681 C0,552.473451 76.0100114,441.699991 185.530257,391.179397 L188.854,389.668 L188.501806,388.089121 C183.589693,365.84245 181,342.723652 181,319 C181,142.821165 323.821165,3.41060513e-13 500,3.41060513e-13 Z M385.84,616.965 L387.744517,617.688554 L387.824565,617.71864 L387.857,617.73 L391.461,619.058 L391.835,619.194 L391.691,619.142 L391.855,619.201 L391.922125,619.225939 L392.023,619.261 L395.723,620.566 L395.898,620.627 L397.886969,621.306554 C399.254433,621.768289 400.626067,622.221012 402.001839,622.664663 L404.068597,623.32333 L406.129598,623.964672 L406.129598,623.964672 L406.195681,623.984981 L406.195681,623.984981 L404.169,623.354 L408.149,624.577 L408.219,624.599 L410.276537,625.208637 C411.664948,625.614791 413.057238,626.011747 414.453251,626.399411 L416.550045,626.973926 L416.55073,626.974111 L416.703,627.015 L417.444,627.212 L416.734,627.023 L420.449,628 L420.734,628.073 L421.268,628.208 L424.539,629.02 L425.117088,629.161795 L427.033285,629.616468 C430.601947,630.451527 434.193663,631.226674 437.807304,631.94079 L437.807304,631.94079 L437.984,631.974 L437.898287,631.958755 L437.898287,631.958755 L439.493,632.267 L439.979,632.362 L440.048436,632.375307 L440.048436,632.375307 L442.203695,632.777437 L442.128829,632.763726 C445.007047,633.291186 447.898768,633.780017 450.803493,634.22967 L450.803493,634.22967 L450.954425,634.252997 L450.954425,634.252997 L450.993,634.258 L451.352,634.312 L451.03,634.264 L450.993,634.258 L450.954425,634.252997 L450.954425,634.252997 L451.03,634.264 L455.114,634.866 L455.18,634.875 L457.352253,635.173891 C458.817562,635.369663 460.286042,635.55549 461.757667,635.731308 L463.967462,635.987519 L463.967462,635.987519 L464.185037,636.011903 L466.431916,636.254901 L466.431916,636.254901 L468.522,636.466 L468.94,636.505 L472.653,636.843 L472.907,636.865 L473.327,636.899 L477.026,637.184 L477.383,637.21 L477.448,637.215 L477.577,637.223 L477.495408,637.218478 L477.495408,637.218478 L477.757,637.235 L478.799516,637.306706 L478.799516,637.306706 L479.321,637.339 L479.71425,637.365417 L479.71425,637.365417 L480.037,637.384 L480.335086,637.403775 L480.335086,637.403775 L481.702,637.483 L481.937202,637.497205 L481.872614,637.493593 L481.872614,637.493593 L482.113,637.506 L486.198,637.706 L486.407,637.715 L486.682,637.726 L490.635,637.864 L490.726,637.867 L490.818,637.869 L491.268,637.881 L491.0646,637.87727 L491.0646,637.87727 L491.574,637.889 L492.320187,637.909368 L492.320187,637.909368 L492.926,637.922 L493.263651,637.930285 L493.263651,637.930285 L493.504,637.934 L493.873568,637.942347 L493.873568,637.942347 L495.134,637.962 L495.466355,637.96844 L500,638 L504.533634,637.968441 L504.865,637.962 L504.571634,637.967909 L504.571634,637.967909 L508.731,637.881 L509.18,637.869 L509.271,637.867 L509.383,637.863 L513.319,637.726 L513.591,637.715 L513.801,637.706 L517.888,637.506 L518.127718,637.493575 L518.127718,637.493575 L522.348,637.228 L522.65,637.207 L522.853,637.192 L526.725,636.895 L527.086,636.866 L527.346,636.843 L531.059,636.505 L531.477,636.466 L531.931,636.42 L535.736,636.019 L536.032905,635.987477 C538.200657,635.743781 540.361835,635.47836 542.516307,635.191424 L544.66854,634.897324 L544.885,634.866 L548.969,634.264 L549.021,634.256 L549.069,634.248 L551.24077,633.906408 C552.70256,633.670379 554.161026,633.424416 555.6161,633.16859 L557.796158,632.777463 L559.951451,632.375328 L559.951451,632.375328 L560.02,632.362 L557.871219,632.763717 L557.871219,632.763717 L562.015,631.974 L562.149,631.948 L562.273,631.923 L566.355,631.088 L566.445,631.069 L568.538988,630.619152 C569.953642,630.309428 571.36477,629.99032 572.772275,629.661902 L574.880803,629.162303 C576.267612,628.828696 577.650675,628.486085 579.030144,628.134483 L577.16,628.604 L575.114967,629.105879 L575.114967,629.105879 L578.751,628.203 L579.247,628.078 L581.150171,627.586314 C583.973077,626.84598 586.780761,626.067922 589.572854,625.252651 L591.663993,624.634229 L592.028,624.523 L595.792,623.366 L595.873,623.341 L597.889522,622.699676 C599.258653,622.258711 600.623723,621.808752 601.984621,621.349883 L604.022823,620.654908 L604.023161,620.654791 L604.357,620.537 L608.013,619.248 L608.078125,619.225849 L608.078125,619.225849 L608.149,619.2 L608.592,619.038 L612.04,617.768 L612.199,617.708 L612.422,617.624 L615.985,616.258 L616.278813,616.144425 L616.18,616.183 L618.197743,615.385718 L618.197743,615.385718 L620.216476,614.571891 L624.086568,612.966334 L624.369878,612.846436 L626.336229,612.005312 L626.336229,612.005312 L628.194,611.195 L628.052,611.258 L628.2,611.193 L629.059168,610.813438 L629.059168,610.813438 L630.143383,610.323318 C612.217016,531.069852 564.786391,463.007475 499.997471,418.288553 C435.214556,463.00865 387.784111,531.073685 369.857467,610.332239 L369.857467,610.332239 L371.805407,611.195899 L371.804744,611.195608 L372.145,611.344 L375.395,612.745 L375.913133,612.966207 L379.783524,614.571891 L383.722532,616.144952 L383.721815,616.144671 L383.829,616.186 L387.655,617.654 L385.84,616.965 Z"/>
  </defs>
  <g fill="none" fill-rule="evenodd">
    <mask id="collab-b" fill="#fff">
      <use xlink:href="#collab-a"/>
    </mask>
    <use fill="#027AFF" xlink:href="#collab-a"/>
    <circle cx="681" cy="681" r="319" fill="#027AFF" mask="url(#collab-b)"/>
    <circle cx="319" cy="681" r="319" fill="#F8C333" mask="url(#collab-b)"/>
    <path fill="#E64C4C" d="M500.003773,418.288441 C583.369169,475.835068 638,572.037677 638,681 C638,789.962323 583.369169,886.164932 500.003773,943.711559 C416.63127,886.165704 362,789.962761 362,681 C362,573.530911 415.143755,478.47421 496.585133,420.676032 Z" mask="url(#collab-b)"/>
    <circle cx="500" cy="319" r="319" fill="#E64C4C" mask="url(#collab-b)"/>
    <path fill="#027AFF" d="M319,362 C470.890334,362 597.986558,468.156203 630.143383,610.323318 L630.140734,610.333043 C590.398866,628.113098 546.354038,638 500,638 C348.109666,638 221.013442,531.843797 188.856617,389.676682 C228.600904,371.886954 272.645841,362 319,362 Z" mask="url(#collab-b)"/>
    <path fill="#F8C333" d="M681,362 C727.353917,362 771.398636,371.886851 811.140423,389.666817 L811.143383,389.676682 C778.986558,531.843797 651.890334,638 500,638 C453.645841,638 409.600904,628.113046 369.858955,610.332904 C402.013442,468.156203 529.109666,362 681,362 Z" mask="url(#collab-b)"/>
  </g>
</svg>
