<svg xmlns:xlink="http://www.w3.org/1999/xlink" width="235" height="314" viewBox="0 0 235 314">
  <defs>
    <filter id="illustration-clients-a">
      <feColorMatrix in="SourceGraphic" values="0 0 0 0 0.082353 0 0 0 0 0.090196 0 0 0 0 0.078431 0 0 0 1.000000 0"/>
    </filter>
    <filter id="illustration-clients-b">
      <feColorMatrix in="SourceGraphic" values="0 0 0 0 0.082353 0 0 0 0 0.090196 0 0 0 0 0.078431 0 0 0 1.000000 0"/>
    </filter>
    <filter id="illustration-clients-c">
      <feColorMatrix in="SourceGraphic" values="0 0 0 0 0.082353 0 0 0 0 0.090196 0 0 0 0 0.078431 0 0 0 1.000000 0"/>
    </filter>
    <polygon id="illustration-clients-d" points=".033 .17 62.124 .17 62.124 34.499 .033 34.499"/>
  </defs>
  <g fill="none" fill-rule="evenodd">
    <path fill="#151714" fill-opacity=".101" d="M83.4126706,287.470206 C141.710392,298.903533 223,245.372812 223,156.255582 C223,67.138352 177.961722,0 119.93552,0 C61.9093188,0 16.3068591,101.165473 2.83720407,156.255582 C-10.632451,211.345691 25.1149493,276.036878 83.4126706,287.470206 Z" transform="translate(12 12)"/>
    <g transform="rotate(-90 222.125 80.75)">
      <path fill="#151714" d="M54.8429901,41.25 C68.7177785,41.25 74.5125777,34.5434664 77.7879137,31.1740388 C77.9282499,29.7258371 78,28.2358968 78,26.7194875 L77.8812097,26.7171066 L78,26.7171066 C78,25.2235617 77.9315184,23.7606092 77.796268,22.332492 C74.5208143,18.9633305 68.7308525,12.25 54.8429901,12.25 C38.6107776,12.25 16.6424159,22.9130682 16.25,23.2217716 L16.25,30.2796915 C16.6424159,30.5866791 38.6107776,41.25 54.8429901,41.25"/>
      <path fill="#AFAFAF" d="M53.2126733,0.00031512122 C39.7611518,-0.0659723214 27.9174955,10.338024 16.25,19.5311146 L16.25,23.25 C16.6273514,22.9540917 38.5893846,12.4395377 54.8119296,12.4395377 C68.692782,12.4395377 74.4787501,19.0598027 77.75,22.3754985 C76.8798553,11.910457 72.0133988,0.0937177712 53.2126733,0.00031512122"/>
      <path fill="#6A6A6A" d="M53.2126733,53.4996996 C39.7611518,53.5644104 27.9174955,43.1621059 16.25,33.9687676 L16.25,30.25 C16.6273514,30.5442592 38.5893846,41.0605449 54.8119296,41.0605449 C68.692782,41.0605449 74.4787501,34.4383108 77.75,31.1197882 C76.8798553,41.5912731 72.0133988,53.4089052 53.2126733,53.4996996"/>
      <polygon fill="#6A6A6A" points="0 31.546 0 21.953 9.5 19.5 9.5 33.75"/>
    </g>
    <g filter="url(#illustration-clients-a)" transform="translate(0 171)">
      <path fill="#231F20" d="M19.798681 9.53429806C20.2218363 14.0621115 23.0911345 16.200301 27.9692444 16.200301L28.2333056 16.200301C33.0779729 16.200301 35.4964081 14.2197165 35.0526331 9.47129468L34.6513863 5.18468323 19.3916349 5.18468323 19.798681 9.53429806zM38.3283331.0908690323L39.2287704 9.72279339C39.9668275 17.6153995 35.8486831 21.5147879 28.7955796 21.5147879L28.5321627 21.5147879C21.4789947 21.5147879 16.3986183 17.58393 15.6599169 9.69190306L14.7627014.0908690323 38.3283331.0908690323zM12.9246468 42.2553227L13.1887081 42.2553227C17.7692496 42.2553227 20.6830092 39.9287023 20.3159137 35.9978444 19.9507514 32.0990995 16.7310468 29.7410095 11.9849676 29.7410095L11.7215507 29.7410095C6.90974613 29.7410095 4.19052077 32.3821321 4.53441901 36.0608477 4.88998028 39.8656989 8.17914754 42.2553227 12.9246468 42.2553227M11.192075 24.4271661L11.4555563 24.4271661C18.4757972 24.4271661 23.9110905 29.3319058 24.5338704 35.9978444 25.1663158 42.7583845 20.8369482 47.5691661 13.750982 47.5691661L13.4875651 47.5691661C6.46790423 47.5691661.929576761 42.9789929.273289789 35.966954-.384930282 28.9234456 4.30322042 24.4271661 11.192075 24.4271661M31.4741454 51.7470179L31.7382067 51.7470179C38.8242373 51.7470179 44.2182268 56.5578639 44.8384937 63.1922685 45.3060458 68.1922534 43.3172095 72.656999 37.5335074 73.1915303L37.060156 68.1291856C39.7877581 67.6891916 40.8781546 65.9595266 40.6250475 63.2559798 40.2611095 59.3565915 36.9808989 57.0608613 32.1690944 57.0608613L31.9050331 57.0608613C27.3566454 57.0608613 24.2677472 58.9165974 24.6793039 63.3183397 25.0322232 67.0916569 27.4500785 68.6321831 30.1615715 68.7267847L29.6881556 63.66444 33.5776789 63.66444 34.5212243 73.7575955 32.016444 73.7575955C25.7213729 73.7575955 21.1769158 69.9212748 20.5476278 63.1922685 19.8597669 55.8348373 24.4867028 51.7470179 31.4741454 51.7470179M14.4297574 84.6417363L24.7688708 87.8245335 24.8088215 88.2477953 15.0634915 91.42287 14.4297574 84.6417363zM6.29972465 94.2717944L6.77314049 99.3360697 29.5967845 91.3990587 28.9656278 84.6481718 4.66123028 76.7484866 5.13271303 81.7928119 10.5260581 83.4285832 11.3871891 92.6360231 6.29972465 94.2717944z" transform="rotate(-90 36.5 36.25)"/>
    </g>
    <path fill="#151714" fill-rule="nonzero" d="M51.1174529,14 C59.7517918,14 66.4934966,17.0741376 71.0471316,22.4495788 C74.7572164,26.8292322 76.75,32.538309 76.75,37.6551899 C76.75,41.6622111 75.3540388,46.1635034 72.9174853,50.0053537 L72.8060174,50.1795251 L72.74437,50.2741118 L72.7929914,50.3308592 L72.7515388,50.3846084 C75.2339324,53.7711577 76.6678657,57.6048425 76.7465787,61.4931385 L76.7492221,61.6699155 L76.75,61.8309153 C76.75,67.7244375 74.7443142,73.6100094 70.9557414,78.0315607 C66.5836559,83.1341156 60.1624766,86 52.1196284,86 C44.2111716,86 37.3455318,83.037431 32.2876578,78.0005604 C27.9436419,73.6745835 25.3031691,68.0804755 25.250794,63.3536233 L25.25,63.210653 L25.25,40.6839051 C25.25,35.2066883 27.2818,28.7833181 30.9807981,23.8185882 C35.6068121,17.609634 42.4324912,14 51.1174529,14 Z M51.2423678,18.5 C44.0576117,18.5 38.5898156,21.3917756 34.8155284,26.4579652 C31.7624114,30.556135 30.0422695,35.9269203 30.0007689,40.3996623 L30,40.5649047 L30,63.0771453 C30,66.5284223 32.1152957,71.0499793 35.6783443,74.5985177 C39.8869397,78.7899739 45.5874963,81.25 52.2438172,81.25 C58.9534638,81.25 64.0856239,78.9592428 67.5667918,74.8961291 C70.6090517,71.3452954 72.25,66.5296374 72.25,61.6982961 C72.25,59.0723626 71.3833942,56.3989962 69.7994521,53.9305242 C66.2646824,57.4655033 61.7949479,59.5110513 56.7935096,59.5110513 C52.2203881,59.5110513 48.5723262,58.494351 46.007794,56.6132196 C43.6149035,54.8579905 42.2842861,52.3999451 42.2842861,49.8962956 C42.2842861,47.3965734 43.1623678,45.1077686 45.1074043,43.3887288 C47.2846834,41.4644312 50.583937,40.4644271 55.0624381,40.4381024 L55.2680021,40.4376871 L55.5543257,40.4407047 C60.3569248,40.5376899 65.5373026,42.892737 69.6088776,46.6358698 C71.2906501,43.7075747 72.25,40.3970535 72.25,37.5381401 C72.25,33.4886693 70.6277007,28.8406095 67.6412977,25.3149587 C63.9728312,20.9840858 58.5255718,18.5 51.2423678,18.5 Z M55.1193443,45 L54.960408,45.0005507 C51.5069458,45.0210906 49.2662065,45.7073336 48.0214674,46.8197262 C47.1431651,47.6046432 46.75,48.6409072 46.75,49.9209956 C46.75,50.9242144 47.348509,52.0421814 48.5970505,52.9682337 C50.3094684,54.2383467 53.0122129,55 56.6726111,55 C60.4832391,55 63.9065116,53.3743192 66.6568013,50.4908709 L66.75,50.3919042 L66.7213829,50.3638672 C63.4238683,47.1632847 59.1846524,45.1260599 55.4671447,45.0057204 L55.3510435,45.0025644 L55.1193443,45 Z" transform="translate(133 100)"/>
    <g filter="url(#illustration-clients-b)" transform="translate(42 82)">
      <g transform="rotate(-90 49 30.875)">
        <path fill="#000" d="M33.8431293 9.75L59.25 9.75 59.25 0 27.7576484 0 27.7576484 3.70803276C27.7576484 4.99928285 26.7025109 6.04186138 25.406892 6.04186138L4.90770371 6.04186138C4.25976629 6.04186138 3.73472458 5.52057211 3.73472458 4.8726075 3.73472458 4.22932202 4.25976629 3.70803276 4.90770371 3.70803276L25.406892 3.70803276 25.406892 0 0 0 0 9.75 31.492373 9.75 31.492373 6.04186138C31.492373 5.3988088 31.7524734 4.81417127 32.1794203 4.39016986 32.6064739 3.9662743 33.1953198 3.70803276 33.8431293 3.70803276L54.3374982 3.70803276C54.9853076 3.70803276 55.5154034 4.22932202 55.5154034 4.8726075 55.5154034 5.19409145 55.3828901 5.48652666 55.171773 5.70091987 54.9559432 5.91040104 54.6614029 6.04186138 54.3374982 6.04186138L33.8431293 6.04186138 33.8431293 9.75zM59.375 27.875L.125 27.875.125 24.1169613 54.4625088 24.1169613C55.1103169 24.1169613 55.6402835 23.588642 55.6402835 22.9367885 55.6402835 22.2799568 55.1103169 21.7515302 54.4625088 21.7515302L.125 21.7515302.125 17.9934915 54.4625088 17.9934915C55.1103169 17.9934915 55.6402835 17.4650649 55.6402835 16.8133188 55.6402835 16.1614653 55.1103169 15.63291 54.4625088 15.63291L.125 15.63291.125 11.875 59.375 11.875 59.375 27.875zM31.4924116 33.9580247L54.3374875 33.9580247C54.9852955 33.9580247 55.5153901 34.4794187 55.5153901 35.1224911 55.5153901 35.4440802 55.3828771 35.7365147 55.1717605 35.9459955 54.9558245 36.1603882 54.6613915 36.2919753 54.3374875 36.2919753L31.4924116 36.2919753 31.4924116 33.9580247zM59.25 30.25L0 30.25 0 33.9580247 27.7576951 33.9580247 27.7576951 36.2919753 0 36.2919753 0 40 59.25 40 59.25 30.25z"/>
        <polygon fill="#000" points="59.25 64.25 0 64.25 0 60.542 27.758 60.542 27.758 58.208 0 58.208 0 54.5 59.25 54.5 59.25 58.208 31.492 58.208 31.492 60.542 59.25 60.542"/>
        <path fill="#000" d="M33.8431293,48.5419672 L54.3374982,48.5419672 C54.6614029,48.5419672 54.9559432,48.410401 55.171773,48.2008987 C55.3828901,47.9914175 55.5154034,47.6989823 55.5154034,47.3774984 C55.5154034,46.7294279 54.9853076,46.2079057 54.3374982,46.2079057 L33.8431293,46.2079057 C33.1953198,46.2079057 32.6064739,46.4710593 32.1794203,46.8950607 C31.7524734,47.3140442 31.492373,47.8987876 31.492373,48.5419672 L31.492373,52.25 L0,52.25 L0,42.5 L25.406892,42.5 L25.406892,46.2079057 L4.90770371,46.2079057 C4.25976629,46.2079057 3.73472458,46.7294279 3.73472458,47.3774984 C3.73472458,48.0205721 4.25976629,48.5419672 4.90770371,48.5419672 L25.406892,48.5419672 C26.7025109,48.5419672 27.7576484,47.4992828 27.7576484,46.2079057 L27.7576484,42.5 L59.25,42.5 L59.25,52.25 L33.8431293,52.25 L33.8431293,48.5419672 Z"/>
      </g>
    </g>
    <g filter="url(#illustration-clients-c)" transform="translate(124)">
      <g transform="translate(0 32.75)">
        <mask id="illustration-clients-e" fill="#fff">
          <use xlink:href="#illustration-clients-d"/>
        </mask>
        <path fill="#000" d="M58.879135 6.62224179C60.6579425 6.62224179 62.1238473 5.21707579 62.1238473 3.44884468 62.1238473 1.62694785 60.6579425.170306557 58.879135.170306557 57.0981239.170306557 55.6327699 1.62694785 55.6327699 3.44884468 55.6327699 5.21707579 57.0981239 6.62224179 58.879135 6.62224179M25.015135 21.5413152C25.015135 20.7368769 25.1115398 19.9631046 25.2443031 19.2052131L19.8043142 19.2052131 24.6554071 9.31429013 19.3685642 9.31429013 14.7692257 19.2052131 9.85423009 19.2052131 5.28684292 9.31429013 0 9.31429013 4.83181195 19.2052131.00440707965 19.2052131.00440707965 23.8889172 7.12018805 23.8889172 12.3029137 34.499399 17.5071239 23.8889172 25.2454049 23.8889172C25.1115398 23.1271924 25.015135 22.3495869 25.015135 21.5413152" mask="url(#illustration-clients-e)"/>
        <path fill="#000" d="M79.8864389,30.0021774 C76.0742187,30.0021774 72.9310978,27.3363934 71.9203192,23.8368639 L87.8514618,23.8368639 C86.8412316,27.3363934 83.699756,30.0021774 79.8864389,30.0021774 M79.8864389,12.9530467 C83.7101764,12.9530467 86.8598787,15.599019 87.8613337,19.1299171 L71.9115441,19.1299171 C72.9124508,15.599019 76.0632499,12.9530467 79.8864389,12.9530467 M100,19.1299171 L92.915775,19.1299171 L92.915775,0 L88.2249508,0 L88.2249508,11.4572579 C85.9724996,9.59935396 83.1014058,8.45742543 79.8864389,8.45742543 C73.3884984,8.45742543 68.160201,12.9436912 67.0852547,19.1299171 L61.2300882,19.1299171 L61.2300882,9.18936034 L56.539264,9.18936034 L56.539264,19.1299171 L51.0010969,19.1299171 C51.1321745,19.8915696 51.2297972,20.6691817 51.2297972,21.4776121 C51.2297972,22.2893444 51.1332714,23.0713591 51,23.8368639 L56.539264,23.8368639 L56.539264,33.6624023 L61.2300882,33.6624023 L61.2300882,23.8368639 L67.0863516,23.8368639 C68.1656854,30.0175865 73.3934344,34.5 79.8864389,34.5 C83.1014058,34.5 85.9724996,33.3575211 88.2249508,31.4996172 L88.2249508,33.6624023 L92.915775,33.6624023 L92.915775,23.8368639 L100,23.8368639 L100,19.1299171"/>
      </g>
    </g>
  </g>
</svg>
