<svg width="51" height="26" viewBox="0 0 51 26">
  <path fill="#151714" d="M13.6516592,0.762115737 C14.252169,-0.232444792 15.294455,-0.255482341 15.9139947,0.704181797 L15.9335843,0.735092423 L15.9501026,0.762022746 L20.9121344,8.98020616 C21.3102726,9.63960801 21.8728051,9.67359346 22.2874947,9.0836741 L22.3140406,9.04474917 C22.3184297,9.03811742 22.3228009,9.03141353 22.3271539,9.02463751 L22.3401577,9.00409307 L22.3548232,8.98020616 L27.316855,0.762022746 C27.9176568,-0.233033128 28.9584679,-0.254324367 29.576597,0.708954221 L29.5951979,0.738445861 L29.611645,0.76542215 L37.218315,13.4399507 C37.7706033,14.3601949 37.5182537,15.5899291 36.6524781,16.2260922 L36.6260549,16.2451872 L36.6006183,16.2629395 L36.526801,16.3136044 C35.6291401,16.9297181 34.4438108,16.6924858 33.8552036,15.7852878 L33.8375506,15.7575921 L33.8213569,15.7312397 L29.1873885,8.0559672 C28.7764561,7.37533719 28.1902539,7.36089038 27.7725158,8.01108433 L27.7595167,8.03161924 L27.7448579,8.05549305 L22.7829361,16.273358 C22.1822094,17.2684552 21.1400192,17.2917014 20.519483,16.3304228 L20.5008088,16.3009918 L20.4842908,16.2740617 L15.5222589,8.05587832 C15.1112757,7.3752024 14.5251437,7.36092976 14.1072849,8.01139424 L14.094282,8.03193764 L14.0796173,8.05582361 L3.84730835,25.0029654 C3.27230225,25.9553126 2.04132329,26.27884 1.06753635,25.739567 L1.03810732,25.7229611 L1.00396513,25.7028826 C0.045054208,25.1308668 -0.280520319,23.9078851 0.261827567,22.9403352 L0.278528256,22.9110947 L0.29481942,22.8836274 L13.6516592,0.762115737 Z M42.10872,16.8018868 C43.1784938,16.8018868 44.0995136,17.085121 44.912019,17.6159867 C45.5453489,18.0297848 46.0795965,18.5631738 46.6375168,19.2806029 L46.6794071,19.3347562 L46.7457016,19.4215927 L46.8262457,19.5288034 L46.9057008,19.6362091 L46.9675308,19.7207602 L47.0284523,19.8047594 L47.2808818,20.1563314 L47.379951,20.2930427 L47.4746799,20.4219503 L47.5200579,20.4829312 L47.5865924,20.5712629 L47.6293049,20.6272052 L47.6921221,20.7082223 L47.732654,20.7596116 L47.7722701,20.8090888 L47.8109987,20.8566724 L47.8488675,20.9023811 L47.8859034,20.9462339 L47.9226045,20.988787 L47.939952,21.0085759 L47.992269,21.0668548 L48.0262249,21.1034859 L48.05947,21.138367 L48.0934729,21.1729587 L48.1239175,21.2029802 L48.1568702,21.2343472 L48.1768914,21.2528422 L48.1857899,21.2609181 L48.2178138,21.2891702 L48.2452722,21.3124446 L48.2764925,21.3377032 L48.3025713,21.3578731 L48.3304781,21.3784133 L48.3607486,21.3994385 C48.5214542,21.5077918 48.6755108,21.5572996 48.8732363,21.5651396 L48.8980899,21.5658157 L48.9312,21.5655514 C50.0510197,21.5655514 50.9630498,22.4531799 50.9989052,23.5616848 L51,23.5953428 L51,23.6294738 C51,24.745379 50.1115665,25.6564866 48.9971483,25.6923274 L48.9633096,25.6931449 L48.9312,25.6933962 C47.8972444,25.6933962 47.0016046,25.4285934 46.2088457,24.9311327 C45.582909,24.5383539 45.0481024,24.0243449 44.5054271,23.3454222 L44.4625662,23.2914796 L44.3778827,23.1830568 L44.360513,23.1605268 L44.2942185,23.0736904 L44.2292594,22.9873614 L44.1655874,22.9016562 L44.1030237,22.8165105 L44.0116502,22.6907774 L43.9228695,22.567456 L43.7577118,22.3371105 L43.6570146,22.1981905 L43.5609756,22.0675775 L43.4920541,21.9752673 L43.4253452,21.8872989 L43.3823085,21.8313763 L43.3402761,21.7774684 L43.2992166,21.7255558 L43.2590994,21.6756192 L43.2198947,21.627639 L43.1815738,21.5815954 L43.1370741,21.5292929 L43.0894555,21.4748259 L43.0540123,21.4353981 L43.0193335,21.3978107 L42.9847195,21.3613472 L42.9686953,21.3448268 L42.9343026,21.3102409 C42.8879543,21.2644102 42.843465,21.2236947 42.8017894,21.188765 L42.7811905,21.1717855 L42.7495975,21.1467856 L42.7233919,21.127003 L42.6924561,21.1049265 C42.6413556,21.0695122 42.5914818,21.0404541 42.5440207,21.0179151 L42.5204968,21.0071896 L42.4903786,20.9945979 C42.4343824,20.9723194 42.3767497,20.9561308 42.3174436,20.9457071 L42.287651,20.9409742 L42.2576534,20.9370614 L42.2235453,20.9336651 L42.2110649,20.9326426 L42.1758228,20.9305387 L42.1456445,20.9294507 L42.1114992,20.9290087 L42.07465,20.9294026 L42.0447413,20.9303736 L41.9972552,20.9333557 L41.9667097,20.936279 L41.9333441,20.9404961 C41.8704321,20.949417 41.8118114,20.9636973 41.7575803,20.9829963 L41.7308311,20.9930624 L41.7006651,21.0056025 C41.6522348,21.0267209 41.6039218,21.0529249 41.5562195,21.0838882 L41.5276754,21.1030348 L41.496654,21.1251202 L41.4701898,21.1449526 L41.4385148,21.169973 C41.4124423,21.191084 41.3858839,21.2138985 41.3594293,21.2378633 L41.333031,21.2621911 L41.2845902,21.3087925 L41.2514708,21.3420432 L41.2004947,21.3952609 L41.1656106,21.4330034 L41.1299774,21.4725838 L41.0935692,21.5140243 L41.0563593,21.5573457 L41.0183201,21.6025684 L40.9794233,21.6497124 L40.9399291,21.698433 L40.878483,21.7757863 L40.8148725,21.8576122 L40.7489881,21.9439763 L40.6807173,22.0349448 L40.6099446,22.1305848 L40.5365521,22.2309641 L40.4604656,22.3360878 L40.2649489,22.6086974 L40.2051363,22.6916808 L40.1136433,22.8175683 L40.0510754,22.9027081 L39.9872678,22.9885823 L39.9221723,23.0750746 L39.8394046,23.1832543 L39.7541986,23.2923383 C39.1974223,23.9972079 38.6510031,24.5280177 38.0085944,24.9311327 C37.2158355,25.4285934 36.3201956,25.6933962 35.28624,25.6933962 C34.2164662,25.6933962 33.2954464,25.410162 32.482941,24.8792963 C31.8496111,24.4654983 31.3153635,23.9321092 30.7574433,23.2146801 L30.7155529,23.1605268 L30.6492584,23.0736904 L30.5842994,22.9873614 L30.5204619,22.9014307 L30.427315,22.7743652 L30.3367232,22.6492535 L30.1127518,22.3371105 L30.0120546,22.1981905 L29.9160156,22.0675775 L29.8470941,21.9752673 L29.7803852,21.8872989 L29.7373485,21.8313763 L29.695316,21.7774684 L29.6542565,21.7255558 L29.6141393,21.6756192 L29.5749347,21.627639 L29.5366137,21.5815954 L29.480728,21.5161172 L29.4444954,21.4748259 L29.4090523,21.4353981 L29.3620989,21.3847597 L29.3237352,21.3448268 L29.2893426,21.3102409 L29.2586698,21.2803817 L29.2253405,21.2491135 L29.1946051,21.2213626 L29.1659417,21.19649 L29.1362305,21.1717855 L29.1046375,21.1467856 L29.0784319,21.127003 L29.0502751,21.1068248 L29.0196086,21.0861509 C28.9780636,21.0590073 28.937191,21.0360211 28.8984869,21.0176528 L28.8755367,21.0071896 L28.8454185,20.9945979 C28.7894223,20.9723194 28.7317896,20.9561308 28.6724836,20.9457071 L28.6426909,20.9409742 L28.6126934,20.9370614 L28.5785853,20.9336651 L28.5661048,20.9326426 L28.5308627,20.9305387 L28.5006845,20.9294507 L28.4665392,20.9290087 L28.4296899,20.9294026 L28.3997813,20.9303736 L28.3522952,20.9333557 L28.3217496,20.936279 L28.288384,20.9404961 C28.1310378,20.9628077 27.9948972,21.0196005 27.8507555,21.125712 L27.8252297,21.1449526 L27.7935548,21.169973 L27.7657,21.1929986 L27.7332303,21.2210959 C27.7160889,21.2362525 27.6987141,21.2521373 27.6815268,21.2683384 L27.6559393,21.2928257 L27.623155,21.3251972 L27.5896947,21.3593337 L27.5555347,21.3952609 L27.5206506,21.4330034 L27.4850173,21.4725838 L27.4486091,21.5140243 L27.4113992,21.5573457 L27.3733601,21.6025684 L27.3344632,21.6497124 L27.2946793,21.6987973 L27.253978,21.7498426 L27.2123286,21.8028675 L27.1696991,21.8578914 L27.1262491,21.9146799 L27.0586239,22.0043248 L27.0124502,22.0663024 L26.9408174,22.1635146 L26.8666211,22.2653557 L26.7628918,22.4093052 L26.6198853,22.6088411 L26.5299038,22.7334924 L26.4375513,22.8600391 L26.3743695,22.9455607 L26.3099241,23.0317584 L26.2441663,23.1185163 L26.1770467,23.2057187 L26.1092386,23.2923383 C25.5524622,23.9972079 25.0060431,24.5280177 24.3636343,24.9311327 C23.5708755,25.4285934 22.6752356,25.6933962 21.64128,25.6933962 C20.6193155,25.6933962 19.7322733,25.4346331 18.9462172,24.9481409 C18.3231809,24.562542 17.788845,24.0557465 17.2510034,23.3896191 L17.2073852,23.3352589 L17.1389118,23.2485759 L17.1042562,23.2040991 L17.0372757,23.1170524 L16.971655,23.0304552 L16.9073454,22.9444236 L16.8442992,22.8590739 L16.782355,22.7743652 L16.6917615,22.6492512 L16.4691182,22.3389516 L16.370049,22.2022404 L16.2753201,22.0733327 L16.2301321,22.0126036 L16.1420331,21.8959437 L16.0784963,21.8134782 L16.0374956,21.7611259 L15.9974253,21.710695 L15.9582564,21.6621669 L15.9199611,21.6155231 L15.8640966,21.5490492 L15.8278677,21.5070328 L15.7924206,21.4668329 L15.757731,21.4284283 L15.7237751,21.3917971 L15.69053,21.356916 L15.6579732,21.3237602 L15.61038,21.277202 L15.5794466,21.2482372 L15.5472021,21.2192173 C15.5192437,21.1945668 15.491889,21.1718408 15.4662853,21.1518641 L15.4474287,21.1374099 L15.416878,21.1150101 C15.3750669,21.0851949 15.3341647,21.0596699 15.295601,21.0389637 L15.2727548,21.0271225 L15.2432389,21.0129433 L15.2242699,21.0044626 L15.2080439,20.9976124 L15.178335,20.9861444 C15.1057601,20.959549 15.029544,20.9427194 14.9468904,20.9347969 L14.9155881,20.9322418 L14.8837751,20.9304206 L14.8512179,20.9294059 L14.8188,20.9297317 C13.6989803,20.9297317 12.7869502,20.0421031 12.7510948,18.9335982 L12.75,18.8999403 L12.75,18.8658092 C12.75,17.749904 13.6384335,16.8387965 14.7528517,16.8029556 L14.7866904,16.8021382 L14.8188,16.8018868 C15.8407644,16.8018868 16.7278066,17.0606499 17.5138627,17.5471421 C18.136899,17.932741 18.6712349,18.4395365 19.2090765,19.1056639 L19.2526948,19.1600241 L19.3211682,19.2467071 L19.3558237,19.2911839 L19.4228042,19.3782306 L19.488425,19.4648278 L19.5529169,19.5511067 L19.6469763,19.6787725 L19.7384173,19.8045994 L19.8560987,19.9682251 L20.0180487,20.1938741 L20.093262,20.2974694 L20.1416614,20.3635518 L20.2124572,20.4592362 L20.2579459,20.5200157 L20.3244204,20.6076802 L20.3888313,20.6911113 L20.4303734,20.7440191 L20.470958,20.7949413 L20.5106152,20.8438973 L20.5493744,20.8909067 L20.5872642,20.9359894 L20.624312,20.9791659 L20.6605445,21.0204571 L20.6959877,21.0598849 L20.7306665,21.0974723 L20.7767187,21.145749 L20.814178,21.1835525 L20.8480231,21.2164655 C20.8679539,21.2355002 20.8875488,21.2535742 20.9059942,21.2699964 L20.9240264,21.2858424 L20.9562076,21.313131 C21.0201724,21.3661339 21.0812917,21.4090499 21.1389797,21.4421498 L21.1634913,21.4557352 L21.192821,21.470791 L21.2200202,21.4837949 L21.2458876,21.4951082 L21.2690016,21.5044005 L21.29935,21.5153738 C21.3507608,21.5329545 21.4041066,21.5457365 21.4591319,21.5538863 L21.4923466,21.5582216 L21.5389351,21.5626404 L21.5741772,21.5647443 L21.6043555,21.5658323 L21.6385008,21.5662743 L21.6916009,21.5654278 L21.7052587,21.5649094 L21.7527448,21.5619273 L21.7867919,21.5585838 C21.8613684,21.5501687 21.9296076,21.5346813 21.9925265,21.5122559 L22.0191689,21.5022207 L22.0493349,21.4896805 C22.1161487,21.4605459 22.1829077,21.4216526 22.2506933,21.3721821 L22.2798102,21.3503305 L22.3093045,21.3270963 L22.3413599,21.3005542 L22.3699436,21.2758539 L22.4011405,21.2477672 L22.4329547,21.21799 L22.4654098,21.1864905 L22.4985292,21.1532399 L22.5323363,21.1182111 L22.5668553,21.0813792 L22.614728,21.0286395 L22.6564308,20.9812587 L22.6936407,20.9379374 L22.7316799,20.8927146 L22.7702569,20.8459662 L22.830319,20.7715585 L22.8924747,20.6927217 L22.9570332,20.6091239 L23.0010119,20.5513067 L23.0692827,20.4603382 L23.1400554,20.3646983 L23.2133451,20.264461 L23.3157176,20.1228067 L23.5148717,19.8451575 L23.6055227,19.7199728 L23.6674887,19.6352439 L23.7306705,19.5497224 L23.7948533,19.4638718 L23.8278277,19.4202084 L23.893643,19.3340125 C24.466233,18.589918 25.0112978,18.0401297 25.660461,17.6159867 C26.4729664,17.085121 27.3939862,16.8018868 28.46376,16.8018868 C29.4857244,16.8018868 30.3727667,17.0606499 31.1588227,17.5471421 C31.781859,17.932741 32.3161949,18.4395365 32.8540365,19.1056639 L32.8976548,19.1600241 L32.9661282,19.2467071 L33.0113896,19.3048716 L33.0344471,19.3347562 L33.1007416,19.4215927 L33.1654897,19.5076381 L33.1976945,19.5508594 L33.2608893,19.6364124 L33.3532993,19.7630534 L33.5010587,19.9682251 L33.6630087,20.1938741 L33.7380861,20.2972839 L33.8106087,20.3961091 L33.8574172,20.4592362 L33.9031064,20.5202804 L33.9474873,20.5789708 L34.0126515,20.6639067 L34.054684,20.7178146 L34.0957435,20.7697272 L34.1358607,20.8196638 L34.1884716,20.8838495 L34.2322242,20.9359894 L34.269272,20.9791659 L34.3233232,21.0404025 L34.3652922,21.0863689 L34.4262648,21.1504562 L34.4606574,21.1850421 C34.4867003,21.2107941 34.5121514,21.2349263 34.5361001,21.2566535 L34.5537657,21.2724856 L34.5960826,21.308904 L34.6137695,21.3234976 L34.6453625,21.3484974 L34.6715681,21.36828 L34.7059645,21.3927475 L34.7136352,21.3980178 L34.7441829,21.4180058 C34.7802498,21.4408522 34.8158663,21.4605864 34.8495685,21.4766975 L34.8744633,21.4880934 L34.9045815,21.5006852 C34.9692993,21.5264336 35.0363063,21.5440877 35.1068523,21.5542991 L35.1373066,21.5582216 L35.1838952,21.5626404 L35.2299317,21.5652055 L35.2493155,21.5658323 L35.2834608,21.5662743 L35.3365609,21.5654278 L35.3502187,21.5649094 L35.3977048,21.5619273 L35.431752,21.5585838 C35.5063284,21.5501687 35.5745677,21.5346813 35.6374865,21.5122559 L35.664129,21.5022207 L35.6942949,21.4896805 C35.7299259,21.4741434 35.7654552,21.4558709 35.7998138,21.4355336 L35.8253467,21.4199039 L35.8559797,21.3999181 L35.8672846,21.3922482 L35.898306,21.3701629 L35.9247703,21.3503305 L35.9542646,21.3270963 L35.9863199,21.3005542 C36.0031472,21.2862954 36.0201883,21.2713304 36.0369819,21.2560946 L36.061929,21.233092 L36.1103699,21.1864905 L36.1434892,21.1532399 L36.1772963,21.1182111 L36.2118153,21.0813792 L36.259688,21.0286395 L36.3013909,20.9812587 L36.3386008,20.9379374 L36.3766399,20.8927146 L36.4155368,20.8455706 L36.4550309,20.79685 L36.5167262,20.7191767 L36.5588617,20.6651547 L36.6017909,20.6093903 L36.668458,20.5214988 L36.7374096,20.4291711 L36.8336453,20.2983095 L36.9087341,20.1948949 L37.1898237,19.8036022 L37.2813167,19.6777147 L37.3436731,19.5928601 L37.3756305,19.5497224 L37.4400759,19.4635246 L37.5052514,19.3775265 C38.0836326,18.6199519 38.6276182,18.064581 39.2787472,17.6335296 C40.0977174,17.0913664 41.0270589,16.8018868 42.10872,16.8018868 Z"/>
</svg>
