<svg width="16" height="16" viewBox="0 0 16 16">
  <path fill="#151714" fill-rule="evenodd" d="M8,0 C12.418278,0 16,3.581722 16,8 C16,9.06126984 15.793349,10.0742738 15.4180912,11.0009677 L15.3862638,10.9977123 L15.3290661,10.9940843 C15.1829653,10.9732058 15.0816698,10.8626061 14.8665983,10.5629702 C14.6109287,10.2071391 14.26073,9.72012254 13.5495572,9.72012254 C12.8383843,9.72012254 12.4881856,10.2071391 12.232516,10.5629702 C11.9905605,10.9000606 11.8926029,10.997902 11.7128505,10.997902 C11.5330981,10.997902 11.4351404,10.9000606 11.193185,10.5629702 C10.9375154,10.2071391 10.5873167,9.72012254 9.87614384,9.72012254 C9.16497102,9.72012254 8.81477228,10.2071391 8.55910272,10.5629702 C8.31714723,10.9000606 8.21918954,10.997902 8.03943718,10.997902 C7.85968482,10.997902 7.76172713,10.9000606 7.51977164,10.5629702 C7.26410208,10.2071391 6.91390334,9.72012254 6.20273052,9.72012254 L6.20273052,9.72012254 L6.11467327,9.72796664 C5.88614321,9.76919069 5.71284663,9.96797741 5.71284663,10.2069905 C5.71284663,10.4460037 5.88614321,10.6447904 6.11467327,10.6860144 L6.11467327,10.6860144 L6.20273052,10.6936688 C6.38248288,10.6936688 6.48044057,10.7915102 6.72239606,11.1286006 C6.97806563,11.4844317 7.32826436,11.9714483 8.03943718,11.9714483 C8.75061,11.9714483 9.10080873,11.4844317 9.3564783,11.1286006 C9.59843379,10.7915102 9.69639148,10.6936688 9.87614384,10.6936688 C10.0558962,10.6936688 10.1538539,10.7915102 10.3958094,11.1286006 C10.6514789,11.4844317 11.0016777,11.9714483 11.7128505,11.9714483 C12.4240233,11.9714483 12.774222,11.4844317 13.0298916,11.1286006 C13.2718471,10.7915102 13.3698048,10.6936688 13.5495572,10.6936688 C13.7293095,10.6936688 13.8272672,10.7915102 14.0692227,11.1286006 C14.2705882,11.4088534 14.5305914,11.7704823 14.9794068,11.9114588 C13.6104693,14.3511199 10.997793,16 8,16 C3.581722,16 0,12.418278 0,8 C0,3.581722 3.581722,0 8,0 Z M10.0788682,5.22104075 C9.94024603,5.05918397 9.75005411,5.07736248 9.6202832,5.2923158 L9.6202832,5.2923158 L8.29434892,7.48860136 L8.24449116,7.55809459 C8.10454409,7.72096474 7.91334745,7.70355468 7.78357654,7.48860136 L7.78357654,7.48860136 L6.45764227,5.2923158 L6.40749719,5.2232984 C6.26611073,5.06281201 6.06883316,5.09029244 5.94619514,5.29342837 L5.94619514,5.29342837 L2.36491011,11.2254196 L2.32587282,11.3058288 C2.25344584,11.498102 2.30992265,11.717479 2.45926053,11.8493148 L2.45926053,11.8493148 L2.52884276,11.9001219 L2.60825102,11.9386785 C2.82479736,12.0214117 3.07342159,11.9443215 3.20412674,11.7278174 L3.20412674,11.7278174 L5.94696569,7.184494 L5.99680623,7.11502815 C6.13670861,6.95222906 6.32787136,6.96969301 6.45764227,7.18464632 L6.45764227,7.18464632 L7.78357654,9.38093189 L7.83356843,9.45020181 C7.97417714,9.61197011 8.16803721,9.59011982 8.29215736,9.38449225 L8.29215736,9.38449225 L8.37473871,9.24768126 L8.46784194,9.09344416 C8.60233064,8.87065294 8.77055095,8.59200426 8.88043134,8.41001199 L8.88043134,8.41001199 L9.62317138,7.17982948 L9.67266948,7.11146666 C9.81207239,6.95217594 10.0056938,6.97700847 10.1324446,7.18697104 L10.1324446,7.18697104 L11.3739178,9.24347056 L11.42351,9.31133329 C11.5684787,9.47628881 11.809351,9.51149368 12.005009,9.37718724 L12.005009,9.37718724 L12.0236853,9.3643672 L12.0897076,9.30981749 C12.2506171,9.15085943 12.2888719,8.89073207 12.1695352,8.69186552 L12.1695352,8.69186552 L10.1282154,5.2901435 Z"/>
</svg>
